# xmcd
#
# Track frame offsets:
#	200
#	15091
#	30723
#	47235
#	62362
#	75316
#	88204
#	103776
#	118835
#	135092
#	150259
#	164809
#
# Disc length: 2452 seconds
#
# Revision: 1
# Processed by: cddbd v1.5.2PL0 Copyright (c) Steve Scherf et al.
# Submitted via: audiograbber 1.83.01
#
DISCID=8609920c
DTITLE=Hilda V - The Power And Time Hilda V
DYEAR=1999
DGENRE=Country
TTITLE0=Entrepeneur Blues
TTITLE1=Kiss Me At The Door
TTITLE2=It Takes Time
TTITLE3=Slow Down Time
TTITLE4=Don´t Need A Man
TTITLE5=The Things I Do For You
TTITLE6=I Can Bring You Romance
TTITLE7=Honey
TTITLE8=I Pledge My Love
TTITLE9=I Get A Feeling
TTITLE10=I Have The Power
TTITLE11=Time Heals
EXTD=
EXTT0=
EXTT1=
EXTT2=
EXTT3=
EXTT4=
EXTT5=
EXTT6=
EXTT7=
EXTT8=
EXTT9=
EXTT10=
EXTT11=
PLAYORDER=
